<?xml version="1.0" encoding="UTF-8"?>
<svg width="1728px" height="246px" viewBox="0 0 1728 246" version="1.1" xmlns="http://www.w3.org/2000/svg" xmlns:xlink="http://www.w3.org/1999/xlink">
    <!-- Generator: Sketch 52.5 (67469) - http://www.bohemiancoding.com/sketch -->
    <title>CAMBIO</title>
    <desc>Created with Sketch.</desc>
    <g id="Page-1" stroke="none" stroke-width="1" fill="none" fill-rule="evenodd">
        <path d="M169.651538,169.309746 L169.981599,170.29506 C170.421683,194.818547 162.967872,213.566691 147.619942,226.540053 C132.272012,239.513416 112.055956,246 86.9711677,246 C60.676148,246 39.6074421,236.338548 23.7644177,217.015354 C7.92139336,197.69216 0,172.320584 0,140.899866 L0,105.100134 C0,73.7888955 7.92139336,48.4446897 23.7644177,29.0667557 C39.6074421,9.68882167 60.676148,0 86.9711677,0 C112.055956,0 132.272012,6.51395355 147.619942,19.5420561 C162.967872,32.5701586 170.421683,51.1814545 169.981599,75.376502 L169.651538,76.3618158 L162.060126,76.3618158 C162.060126,54.7942847 155.321441,38.1535966 141.843868,26.4392523 C128.366295,14.7249081 110.075578,8.86782377 86.9711677,8.86782377 C63.5366941,8.86782377 44.6683752,17.6808197 30.3656449,35.3070761 C16.0629145,52.9333325 8.91165665,76.0879741 8.91165665,104.771696 L8.91165665,140.899866 C8.91165665,169.912028 16.0629145,193.203517 30.3656449,210.775033 C44.6683752,228.34655 63.5366941,237.132176 86.9711677,237.132176 C110.075578,237.132176 128.366295,231.494048 141.843868,220.217623 C155.321441,208.941199 162.060126,191.972076 162.060126,169.309746 L169.651538,169.309746 Z M464.288312,171.595467 L346.54632,171.595467 L319.75671,243 L310,243 L399.960173,4 L410.874459,4 L501,243 L491.24329,243 L464.288312,171.595467 Z M351,162 L462,162 L411.620536,27.4545455 L406.995536,14 L406.004464,14 L401.544643,27.4545455 L351,162 Z M661.662979,4 L759.677729,228.883242 L760.664454,228.883242 L859.008112,4 L872,4 L872,243 L863.119469,243 L863.119469,19.5940934 L862.132743,19.2657967 L763.789086,243 L756.717552,243 L658.867257,20.4148352 L657.880531,20.7431319 L657.880531,243 L649,243 L649,4 L661.662979,4 Z M1047,243 L1047,4 L1110.35027,4 C1135.27148,4 1154.62371,9.08854802 1168.40757,19.2657967 C1182.19142,29.4430454 1189.08324,44.763405 1189.08324,65.2273352 C1189.08324,79.4535968 1185.38923,91.4363066 1178.00108,101.175824 C1170.61294,110.915342 1160.1925,116.98877 1146.73946,119.396291 C1161.73629,121.366081 1174.36211,127.877234 1184.6173,138.929945 C1194.87248,149.982656 1200,162.731384 1200,177.176511 C1200,198.078172 1193.19088,214.273981 1179.57243,225.764423 C1165.95399,237.254865 1147.95254,243 1125.56757,243 L1047,243 Z M1057,125 L1057,235 L1126.05018,235 C1146.16942,235 1162.02401,229.982506 1173.61444,219.947368 C1185.20487,209.912231 1191,195.907358 1191,177.932331 C1191,163.155315 1185.45089,150.639149 1174.35251,140.383459 C1163.25413,130.127768 1147.70022,125 1127.69033,125 L1057,125 Z M1057,116 L1114.70133,116 C1136.63567,116 1153.16883,111.728713 1164.30133,103.18601 C1175.43383,94.6433065 1181,81.6089907 1181,64.0826709 C1181,46.8870364 1175.13073,33.907834 1163.392,25.1446741 C1151.65327,16.3815142 1134.321,12 1111.39467,12 L1057,12 L1057,116 Z M1376,243 L1367,243 L1367,4 L1376,4 L1376,243 Z M1728,140.899866 C1728,173.196423 1719.93329,198.786955 1703.79964,217.67223 C1687.66598,236.557504 1665.45491,246 1637.16576,246 C1608.7661,246 1586.47215,236.557504 1570.28324,217.67223 C1554.09433,198.786955 1546,173.196423 1546,140.899866 L1546,105.100134 C1546,72.9130567 1554.03908,47.3498944 1570.11749,28.4098798 C1586.19589,9.46986525 1608.43459,0 1636.83424,0 C1665.1234,0 1687.38972,9.46986525 1703.63388,28.4098798 C1719.87804,47.3498944 1728,72.9130567 1728,105.100134 L1728,140.899866 Z M1719,104.21295 C1719,74.7777905 1711.91311,51.3837798 1697.73913,34.0302158 C1683.56515,16.6766518 1663.40323,8 1637.25278,8 C1611.21221,8 1591.16016,16.6766518 1577.09606,34.0302158 C1563.03195,51.3837798 1556,74.7777905 1556,104.21295 L1556,140.457554 C1556,170.112378 1563.05942,193.61622 1577.17846,210.969784 C1591.29751,228.323348 1611.43196,237 1637.58241,237 C1663.73286,237 1683.83984,228.350806 1697.90394,211.052158 C1711.96805,193.753511 1719,170.222211 1719,140.457554 L1719,104.21295 Z" id="CAMBIO" fill="#FFFFFF"></path>
    </g>
</svg>