<?xml version="1.0" encoding="UTF-8"?>
<svg width="256px" height="279px" viewBox="0 0 256 279" version="1.1" xmlns="http://www.w3.org/2000/svg" xmlns:xlink="http://www.w3.org/1999/xlink">
    <!-- Generator: Sketch 52.5 (67469) - http://www.bohemiancoding.com/sketch -->
    <title>logo--gafa</title>
    <desc>Created with Sketch.</desc>
    <g id="Page-1" stroke="none" stroke-width="1" fill="none" fill-rule="evenodd">
        <g id="logo--gafa" fill="#000000" fill-rule="nonzero">
            <path d="M44.1287216,182.950147 L44.1287216,213.968382 L97.2763021,213.968382 L97.2763021,230.893015 L44.1287216,230.893015 L44.1287216,279 L26.1731803,279 L26.1731803,166.046029 L112.294037,166.046029 L112.294037,182.970662 L44.1287216,182.950147 Z M256,276.804926 L213.288821,166.025515 L194.922398,166.025515 L152.231763,276.804926 L170.721451,276.804926 L180.171736,252.536029 L227.731322,252.536029 L237.181607,276.804926 L256,276.804926 Z M203.941257,191.853529 L221.444828,235.919118 L186.519862,235.919118 L203.941257,191.853529 Z M256,116.933824 L213.288821,6.15441176 L194.922398,6.15441176 L152.211219,116.933824 L170.700907,116.933824 L180.151192,92.6649265 L227.710778,92.6649265 L237.263783,116.933824 L256,116.933824 Z M203.941257,31.9824265 L221.444828,76.0685294 L186.519862,76.0685294 L203.941257,31.9824265 Z M116.690474,52.2714706 L61.6322928,52.2714706 L61.6322928,69.75 L98.2007865,69.75 L98.2007865,88.7876471 C89.5539515,99.5439738 76.2219152,105.447252 62.4335126,104.625 C23.9749619,102.573529 18.4896878,72.8066912 18.4896878,60.9902206 C18.4896878,49.17375 24.4063879,18.135 62.4335126,17.5811029 C81.6216997,17.3144118 95.4684215,30.3822794 100.255196,36.2905147 L115.478373,26.2998529 C112.992537,21.3147794 93.3523794,0 62.4335126,0 C10.4980339,0 0,44.3117647 0,60.9902206 C0,77.6686765 9.12157933,121.959926 62.4335126,121.959926 C100.049755,121.959926 114.779873,96.8909559 116.690474,90.0390441 L116.690474,52.2714706 Z" id="Shape"></path>
        </g>
    </g>
</svg>