<?xml version="1.0" encoding="utf-8"?>
<!-- Generator: Adobe Illustrator 19.2.0, SVG Export Plug-In . SVG Version: 6.00 Build 0)  -->
<svg version="1.1" id="Layer_1" xmlns="http://www.w3.org/2000/svg" xmlns:xlink="http://www.w3.org/1999/xlink" x="0px" y="0px"
	 width="254px" height="150px" viewBox="0 0 254 150" style="enable-background:new 0 0 254 150;" xml:space="preserve">
<style type="text/css">
	.st0{fill:none;stroke:#6F7076;stroke-miterlimit:10;}
	.st1{fill:#6F7076;}
</style>
<path class="st0" d="M254,30"/>
<path class="st0" d="M0,30"/>
<rect x="14" y="16" class="st1" width="20" height="4"/>
<g>
	<g>
		<rect x="14" y="97" class="st1" width="4" height="2"/>
		<rect x="22" y="97" class="st1" width="4" height="2"/>
		<rect x="30" y="97" class="st1" width="4" height="2"/>
	</g>
	<g>
		<rect x="14" y="47" class="st1" width="30" height="3"/>
		<rect x="14" y="55" class="st1" width="36" height="3"/>
		<rect x="14" y="63" class="st1" width="36" height="3"/>
		<rect x="14" y="71" class="st1" width="36" height="3"/>
		<rect x="14" y="79" class="st1" width="30" height="3"/>
	</g>
</g>
<g>
	<g>
		<path class="st1" d="M24,131c0.6,0,1,0.4,1,1s-0.4,1-1,1s-1-0.4-1-1S23.4,131,24,131 M24,130c-1.1,0-2,0.9-2,2s0.9,2,2,2
			s2-0.9,2-2S25.1,130,24,130L24,130z"/>
	</g>
	<g>
		<path class="st1" d="M16,131c0.6,0,1,0.4,1,1s-0.4,1-1,1s-1-0.4-1-1S15.4,131,16,131 M16,130c-1.1,0-2,0.9-2,2s0.9,2,2,2
			s2-0.9,2-2S17.1,130,16,130L16,130z"/>
	</g>
	<g>
		<path class="st1" d="M32,131c0.6,0,1,0.4,1,1s-0.4,1-1,1s-1-0.4-1-1S31.4,131,32,131 M32,130c-1.1,0-2,0.9-2,2s0.9,2,2,2
			s2-0.9,2-2S33.1,130,32,130L32,130z"/>
	</g>
</g>
<g>
	<path class="st1" d="M250,1c1.7,0,3,1.3,3,3v142c0,1.7-1.3,3-3,3H4c-1.7,0-3-1.3-3-3V4c0-1.7,1.3-3,3-3H250 M250,0H4
		C1.8,0,0,1.8,0,4v142c0,2.2,1.8,4,4,4h246c2.2,0,4-1.8,4-4V4C254,1.8,252.2,0,250,0L250,0z"/>
</g>
<path class="st1" d="M250,0H64v150h186c2.2,0,4-1.8,4-4V4C254,1.8,252.2,0,250,0z"/>
</svg>
