<?xml version="1.0" encoding="utf-8"?>
<!-- Generator: Adobe Illustrator 21.0.2, SVG Export Plug-In . SVG Version: 6.00 Build 0)  -->
<svg version="1.1" baseProfile="tiny" id="Layer_1" xmlns="http://www.w3.org/2000/svg" xmlns:xlink="http://www.w3.org/1999/xlink"
	 x="0px" y="0px" width="254px" height="150px" viewBox="0 0 254 150" overflow="scroll" xml:space="preserve">
<g>
	<path fill="#6F7076" d="M250,1c1.7,0,3,1.3,3,3v142c0,1.7-1.3,3-3,3H4c-1.7,0-3-1.3-3-3V4c0-1.7,1.3-3,3-3H250 M250,0H4
		C1.8,0,0,1.8,0,4v142c0,2.2,1.8,4,4,4h246c2.2,0,4-1.8,4-4V4C254,1.8,252.2,0,250,0L250,0z"/>
</g>
<g>
	<circle fill="#6F7076" cx="26" cy="134" r="4"/>
	<circle fill="#6F7076" cx="16" cy="134" r="4"/>
	<rect x="25" y="133" fill="#FFFFFF" width="2" height="2"/>
	<rect x="15" y="133" fill="#FFFFFF" width="2" height="2"/>
</g>
<g>
	<rect x="14.1" y="62" fill="#6F7076" width="23.8" height="5"/>
	<rect x="14.1" y="71" fill="#6F7076" width="34" height="5"/>
	<path fill="#6F7076" d="M22.4,52h-6.7c-0.9,0-1.7-0.9-1.7-2l0,0c0-1.1,0.8-2,1.7-2h6.7c0.9,0,1.7,0.9,1.7,2l0,0
		C24.1,51.1,23.4,52,22.4,52z"/>
	<polygon fill="#6F7076" points="19.1,99 17.1,99 17.1,97 16.1,97 16.1,99 14.1,99 14.1,100 16.1,100 16.1,102 17.1,102 17.1,100 
		19.1,100 	"/>
	<rect x="14.1" y="80" fill="#6F7076" width="34" height="2"/>
	<rect x="14.1" y="85" fill="#6F7076" width="34" height="2"/>
</g>
<g>
	<rect x="99.1" y="62" fill="#6F7076" width="23.8" height="5"/>
	<rect x="99.1" y="71" fill="#6F7076" width="34" height="5"/>
	<path fill="#6F7076" d="M107.4,52h-6.7c-0.9,0-1.7-0.9-1.7-2l0,0c0-1.1,0.8-2,1.7-2h6.7c0.9,0,1.7,0.9,1.7,2l0,0
		C109.1,51.1,108.4,52,107.4,52z"/>
	<polygon fill="#6F7076" points="104.1,99 102.1,99 102.1,97 101.1,97 101.1,99 99.1,99 99.1,100 101.1,100 101.1,102 102.1,102 
		102.1,100 104.1,100 	"/>
	<rect x="99.1" y="80" fill="#6F7076" width="34" height="2"/>
	<rect x="99.1" y="85" fill="#6F7076" width="34" height="2"/>
</g>
<g>
	<rect x="184.1" y="62" fill="#6F7076" width="23.8" height="5"/>
	<rect x="184.1" y="71" fill="#6F7076" width="34" height="5"/>
	<path fill="#6F7076" d="M192.4,52h-6.7c-0.9,0-1.7-0.9-1.7-2l0,0c0-1.1,0.8-2,1.7-2h6.7c0.9,0,1.7,0.9,1.7,2l0,0
		C194.1,51.1,193.4,52,192.4,52z"/>
	<polygon fill="#6F7076" points="189.1,99 187.1,99 187.1,97 186.1,97 186.1,99 184.1,99 184.1,100 186.1,100 186.1,102 187.1,102 
		187.1,100 189.1,100 	"/>
	<rect x="184.1" y="80" fill="#6F7076" width="34" height="2"/>
	<rect x="184.1" y="85" fill="#6F7076" width="34" height="2"/>
</g>
<rect x="84" fill="#6F7076" width="1" height="149"/>
<rect x="169" fill="#6F7076" width="1" height="149"/>
</svg>
