<?xml version="1.0" encoding="utf-8"?>
<!-- Generator: Adobe Illustrator 21.0.2, SVG Export Plug-In . SVG Version: 6.00 Build 0)  -->
<svg version="1.1" baseProfile="tiny" id="Layer_1" xmlns="http://www.w3.org/2000/svg" xmlns:xlink="http://www.w3.org/1999/xlink"
	 x="0px" y="0px" width="254px" height="150px" viewBox="0 0 254 150" overflow="scroll" xml:space="preserve">
<path fill="#6F7076" d="M250,0H45H4C1.8,0,0,1.8,0,4v142c0,2.2,1.8,4,4,4h41h205c2.2,0,4-1.8,4-4V4C254,1.8,252.2,0,250,0z M253,146
	c0,1.7-1.3,3-3,3H45V1h205c1.7,0,3,1.3,3,3V146z"/>
<rect x="12" y="12" fill="#FFFFFF" width="20" height="4"/>
<g>
	<rect x="12" y="136" fill="#FFFFFF" width="4" height="2"/>
	<rect x="20" y="136" fill="#FFFFFF" width="4" height="2"/>
	<rect x="28" y="136" fill="#FFFFFF" width="4" height="2"/>
</g>
<g>
	<rect x="12" y="49" fill="#FFFFFF" width="12" height="2"/>
	<rect x="12" y="58" fill="#FFFFFF" width="12" height="2"/>
	<rect x="12" y="67" fill="#FFFFFF" width="12" height="2"/>
	<rect x="12" y="76" fill="#FFFFFF" width="12" height="2"/>
	<rect x="12" y="85" fill="#FFFFFF" width="12" height="2"/>
	<rect x="12" y="94" fill="#FFFFFF" width="12" height="2"/>
</g>
</svg>
