<?xml version="1.0" encoding="utf-8"?>
<!-- Generator: Adobe Illustrator 19.2.0, SVG Export Plug-In . SVG Version: 6.00 Build 0)  -->
<svg version="1.1" id="Layer_1" xmlns="http://www.w3.org/2000/svg" xmlns:xlink="http://www.w3.org/1999/xlink" x="0px" y="0px"
	 width="254px" height="150px" viewBox="0 0 254 150" style="enable-background:new 0 0 254 150;" xml:space="preserve">
<style type="text/css">
	.st0{fill:#6F7076;}
	.st1{fill:none;stroke:#6F7076;stroke-miterlimit:10;}
	.st2{fill:#FFFFFF;}
</style>
<g>
	<path class="st0" d="M250,0H4C1.8,0,0,1.8,0,4v142c0,2.2,1.8,4,4,4h246c2.2,0,4-1.8,4-4V4C254,1.8,252.2,0,250,0L250,0z"/>
</g>
<path class="st1" d="M254,30"/>
<path class="st1" d="M0,30"/>
<g>
	<rect x="112" y="55.5" class="st2" width="30" height="3"/>
	<rect x="109" y="63.5" class="st2" width="36" height="3"/>
	<rect x="109" y="71.5" class="st2" width="36" height="3"/>
	<rect x="109" y="79.5" class="st2" width="36" height="3"/>
	<rect x="112" y="87.5" class="st2" width="30" height="3"/>
</g>
<g>
	<g>
		<path class="st2" d="M127,130.8c0.6,0,1,0.4,1,1s-0.4,1-1,1s-1-0.4-1-1S126.4,130.8,127,130.8 M127,129.8c-1.1,0-2,0.9-2,2
			s0.9,2,2,2c1.1,0,2-0.9,2-2S128.1,129.8,127,129.8L127,129.8z"/>
	</g>
	<g>
		<path class="st2" d="M119,130.8c0.6,0,1,0.4,1,1s-0.4,1-1,1s-1-0.4-1-1S118.4,130.8,119,130.8 M119,129.8c-1.1,0-2,0.9-2,2
			s0.9,2,2,2s2-0.9,2-2S120.1,129.8,119,129.8L119,129.8z"/>
	</g>
	<g>
		<path class="st2" d="M135,130.8c0.6,0,1,0.4,1,1s-0.4,1-1,1s-1-0.4-1-1S134.4,130.8,135,130.8 M135,129.8c-1.1,0-2,0.9-2,2
			s0.9,2,2,2s2-0.9,2-2S136.1,129.8,135,129.8L135,129.8z"/>
	</g>
</g>
<g>
	<rect x="117" y="16" class="st2" width="4" height="2"/>
	<rect x="125" y="16" class="st2" width="4" height="2"/>
	<rect x="133" y="16" class="st2" width="4" height="2"/>
</g>
<rect x="34" y="16" class="st2" width="20" height="4"/>
</svg>
