<?xml version="1.0" encoding="utf-8"?>
<!-- Generator: Adobe Illustrator 19.2.0, SVG Export Plug-In . SVG Version: 6.00 Build 0)  -->
<svg version="1.1" xmlns="http://www.w3.org/2000/svg" xmlns:xlink="http://www.w3.org/1999/xlink" x="0px" y="0px" width="254px"
	 height="150px" viewBox="0 0 254 150" style="enable-background:new 0 0 254 150;" xml:space="preserve">
<style type="text/css">
	.st0{fill:#6F7076;}
	.st1{fill:none;stroke:#6F7076;stroke-miterlimit:10;}
</style>
<g id="Layer_1">
	<g>
		<path class="st0" d="M250,1c1.7,0,3,1.3,3,3v142c0,1.7-1.3,3-3,3H4c-1.7,0-3-1.3-3-3V4c0-1.7,1.3-3,3-3H250 M250,0H4
			C1.8,0,0,1.8,0,4v142c0,2.2,1.8,4,4,4h246c2.2,0,4-1.8,4-4V4C254,1.8,252.2,0,250,0L250,0z"/>
	</g>
	<g>
		<rect x="50" y="94" class="st0" width="10" height="2"/>
		<rect x="50" y="98.5" class="st0" width="10" height="1"/>
	</g>
	<g>
		<rect x="66" y="94" class="st0" width="10" height="2"/>
		<rect x="66" y="98.5" class="st0" width="10" height="1"/>
	</g>
	<g>
		<rect x="83" y="94" class="st0" width="10" height="2"/>
		<rect x="83" y="98.5" class="st0" width="10" height="1"/>
	</g>
	<g>
		<rect x="100" y="94" class="st0" width="10" height="2"/>
		<rect x="100" y="98.5" class="st0" width="10" height="1"/>
	</g>
	<path class="st1" d="M254,30"/>
	<path class="st1" d="M0,30"/>
	<g>
		<path class="st0" d="M203,13v44h-72V13H203 M204,12h-74v46h74V12L204,12z"/>
	</g>
	<g>
		<g>
			<path class="st0" d="M203,64v44h-72V64H203 M204,63h-74v46h74V63L204,63z"/>
		</g>
	</g>
	<g>
		<path class="st0" d="M203,115v34h-72v-34H203 M204,114h-74v36h74V114L204,114z"/>
	</g>
	<rect x="50" y="54" class="st0" width="26" height="5"/>
	<rect x="50" y="63" class="st0" width="60" height="5"/>
	<rect x="50" y="72" class="st0" width="60" height="2"/>
	<rect x="50" y="77" class="st0" width="60" height="2"/>
	<rect x="50" y="82" class="st0" width="60" height="2"/>
	<path class="st0" d="M73,114H53c-1.6,0-3-1.3-3-3l0,0c0-1.7,1.3-3,3-3h20c1.7,0,3,1.3,3,3l0,0C76,112.7,74.7,114,73,114z"/>
	<path class="st0" d="M58,44h-6c-1.1,0-2-0.9-2-2v0c0-1.1,0.9-2,2-2h6c1.1,0,2,0.9,2,2v0C60,43.1,59.1,44,58,44z"/>
</g>
<g id="Layer_2">
</g>
<g id="Layer_3">
</g>
</svg>
