<?xml version="1.0" encoding="utf-8"?>
<!-- Generator: Adobe Illustrator 19.2.0, SVG Export Plug-In . SVG Version: 6.00 Build 0)  -->
<svg version="1.1" id="Layer_1" xmlns="http://www.w3.org/2000/svg" xmlns:xlink="http://www.w3.org/1999/xlink" x="0px" y="0px"
	 width="254px" height="150px" viewBox="0 0 254 150" style="enable-background:new 0 0 254 150;" xml:space="preserve">
<style type="text/css">
	.st0{fill:#6F7076;}
	.st1{fill:none;stroke:#6F7076;stroke-miterlimit:10;}
</style>
<g>
	<path class="st0" d="M250,1c1.7,0,3,1.3,3,3v142c0,1.7-1.3,3-3,3H4c-1.7,0-3-1.3-3-3V4c0-1.7,1.3-3,3-3H250 M250,0H4
		C1.8,0,0,1.8,0,4v142c0,2.2,1.8,4,4,4h246c2.2,0,4-1.8,4-4V4C254,1.8,252.2,0,250,0L250,0z"/>
</g>
<path class="st1" d="M254,30"/>
<path class="st1" d="M0,30"/>
<g>
	<g>
		<path class="st0" d="M123,13v44H51V13H123 M124,12H50v46h74V12L124,12z"/>
	</g>
	<g>
		<g>
			<path class="st0" d="M123,64v44H51V64H123 M124,63H50v46h74V63L124,63z"/>
		</g>
	</g>
	<g>
		<path class="st0" d="M123,115v34H51v-34H123 M124,114H50v36h74V114L124,114z"/>
	</g>
</g>
<g>
	<g>
		<rect x="144" y="94" class="st0" width="10" height="2"/>
		<rect x="144" y="98.5" class="st0" width="10" height="1"/>
	</g>
	<g>
		<rect x="160" y="94" class="st0" width="10" height="2"/>
		<rect x="160" y="98.5" class="st0" width="10" height="1"/>
	</g>
	<g>
		<rect x="177" y="94" class="st0" width="10" height="2"/>
		<rect x="177" y="98.5" class="st0" width="10" height="1"/>
	</g>
	<g>
		<rect x="194" y="94" class="st0" width="10" height="2"/>
		<rect x="194" y="98.5" class="st0" width="10" height="1"/>
	</g>
	<rect x="144" y="54" class="st0" width="26" height="5"/>
	<rect x="144" y="63" class="st0" width="60" height="5"/>
	<rect x="144" y="72" class="st0" width="60" height="2"/>
	<rect x="144" y="77" class="st0" width="60" height="2"/>
	<rect x="144" y="82" class="st0" width="60" height="2"/>
	<path class="st0" d="M167,114h-20c-1.6,0-3-1.3-3-3l0,0c0-1.7,1.4-3,3-3h20c1.6,0,3,1.3,3,3l0,0C170,112.7,168.6,114,167,114z"/>
	<path class="st0" d="M152,44h-6c-1.1,0-2-0.9-2-2l0,0c0-1.1,0.9-2,2-2h6c1.1,0,2,0.9,2,2l0,0C154,43.1,153.1,44,152,44z"/>
</g>
<g id="Layer_2">
</g>
</svg>
