<?xml version="1.0" encoding="utf-8"?>
<!-- Generator: Adobe Illustrator 19.2.0, SVG Export Plug-In . SVG Version: 6.00 Build 0)  -->
<svg version="1.1" id="Layer_1" xmlns="http://www.w3.org/2000/svg" xmlns:xlink="http://www.w3.org/1999/xlink" x="0px" y="0px"
	 width="254px" height="150px" viewBox="0 0 254 150" style="enable-background:new 0 0 254 150;" xml:space="preserve">
<style type="text/css">
	.st0{fill:#6F7076;}
	.st1{fill:none;stroke:#6F7076;stroke-miterlimit:10;}
	.st2{fill:#FFFFFF;}
</style>
<g>
	<path class="st0" d="M250,0H4C1.8,0,0,1.8,0,4v142c0,2.2,1.8,4,4,4h246c2.2,0,4-1.8,4-4V4C254,1.8,252.2,0,250,0L250,0z"/>
</g>
<path class="st1" d="M254,30"/>
<path class="st1" d="M0,30"/>
<rect x="34" y="16" class="st2" width="20" height="4"/>
<g>
	<g>
		<rect x="34" y="97" class="st2" width="4" height="2"/>
		<rect x="42" y="97" class="st2" width="4" height="2"/>
		<rect x="50" y="97" class="st2" width="4" height="2"/>
	</g>
	<g>
		<rect x="34" y="47" class="st2" width="30" height="3"/>
		<rect x="34" y="55" class="st2" width="36" height="3"/>
		<rect x="34" y="63" class="st2" width="36" height="3"/>
		<rect x="34" y="71" class="st2" width="36" height="3"/>
		<rect x="34" y="79" class="st2" width="30" height="3"/>
	</g>
</g>
<g>
	<g>
		<path class="st2" d="M44,131c0.6,0,1,0.4,1,1s-0.4,1-1,1s-1-0.4-1-1S43.4,131,44,131 M44,130c-1.1,0-2,0.9-2,2s0.9,2,2,2
			s2-0.9,2-2S45.1,130,44,130L44,130z"/>
	</g>
	<g>
		<path class="st2" d="M36,131c0.6,0,1,0.4,1,1s-0.4,1-1,1s-1-0.4-1-1S35.4,131,36,131 M36,130c-1.1,0-2,0.9-2,2s0.9,2,2,2
			s2-0.9,2-2S37.1,130,36,130L36,130z"/>
	</g>
	<g>
		<path class="st2" d="M52,131c0.6,0,1,0.4,1,1s-0.4,1-1,1s-1-0.4-1-1S51.4,131,52,131 M52,130c-1.1,0-2,0.9-2,2s0.9,2,2,2
			s2-0.9,2-2S53.1,130,52,130L52,130z"/>
	</g>
</g>
</svg>
