<?xml version="1.0" encoding="utf-8"?>
<!-- Generator: Adobe Illustrator 19.2.0, SVG Export Plug-In . SVG Version: 6.00 Build 0)  -->
<svg version="1.1" id="Layer_1" xmlns="http://www.w3.org/2000/svg" xmlns:xlink="http://www.w3.org/1999/xlink" x="0px" y="0px"
	 width="254px" height="150px" viewBox="0 0 254 150" style="enable-background:new 0 0 254 150;" xml:space="preserve">
<style type="text/css">
	.st0{fill:#6F7076;}
	.st1{fill:none;stroke:#6F7076;stroke-miterlimit:10;}
	.st2{fill:#FFFFFF;}
</style>
<g>
	<path class="st0" d="M250,1c1.7,0,3,1.3,3,3v142c0,1.7-1.3,3-3,3H4c-1.7,0-3-1.3-3-3V4c0-1.7,1.3-3,3-3H250 M250,0H4
		C1.8,0,0,1.8,0,4v142c0,2.2,1.8,4,4,4h246c2.2,0,4-1.8,4-4V4C254,1.8,252.2,0,250,0L250,0z"/>
</g>
<path class="st1" d="M254,30"/>
<path class="st1" d="M0,30"/>
<g>
	<g>
		<rect x="144" y="44" class="st0" width="10" height="2"/>
		<rect x="144" y="48.5" class="st0" width="10" height="1"/>
	</g>
	<g>
		<rect x="160" y="44" class="st0" width="10" height="2"/>
		<rect x="160" y="48.5" class="st0" width="10" height="1"/>
	</g>
	<g>
		<rect x="177" y="44" class="st0" width="10" height="2"/>
		<rect x="177" y="48.5" class="st0" width="10" height="1"/>
	</g>
	<g>
		<rect x="194" y="44" class="st0" width="10" height="2"/>
		<rect x="194" y="48.5" class="st0" width="10" height="1"/>
	</g>
	<path class="st0" d="M167,64h-20c-1.6,0-3-1.3-3-3l0,0c0-1.7,1.4-3,3-3h20c1.6,0,3,1.3,3,3l0,0C170,62.7,168.6,64,167,64z"/>
</g>
<g id="Layer_2">
</g>
<g>
	<path class="st0" d="M250,1c1.7,0,3,1.3,3,3v142c0,1.7-1.3,3-3,3H4c-1.7,0-3-1.3-3-3V4c0-1.7,1.3-3,3-3H250 M250,0H4
		C1.8,0,0,1.8,0,4v142c0,2.2,1.8,4,4,4h246c2.2,0,4-1.8,4-4V4C254,1.8,252.2,0,250,0L250,0z"/>
</g>
<path class="st1" d="M254,30"/>
<path class="st1" d="M0,30"/>
<rect x="50" y="44" class="st0" width="26" height="5"/>
<rect x="50" y="53" class="st0" width="60" height="5"/>
<rect x="50" y="62" class="st0" width="60" height="2"/>
<rect x="50" y="67" class="st0" width="60" height="2"/>
<rect x="50" y="72" class="st0" width="60" height="2"/>
<path class="st0" d="M58,34h-6c-1.1,0-2-0.9-2-2l0,0c0-1.1,0.9-2,2-2h6c1.1,0,2,0.9,2,2l0,0C60,33.1,59.1,34,58,34z"/>
<g id="Layer_2_1_">
</g>
<g>
	<circle class="st0" cx="200" cy="118" r="4"/>
	<rect x="199" y="117" class="st2" width="2" height="2"/>
</g>
<g>
	<circle class="st0" cx="54" cy="118" r="4"/>
	<rect x="53" y="117" class="st2" width="2" height="2"/>
</g>
<g>
	<path class="st0" d="M190,87v62H64V87H190 M191,86H63v64h128V86L191,86z"/>
</g>
<polygon class="st0" points="210,87 253,87 253,86 209,86 209,150 244.2,150 244.2,149 210,149 "/>
<polygon class="st0" points="44,87 1,87 1,86 45,86 45,150 9.8,150 9.8,149 44,149 "/>
</svg>
