<?xml version="1.0" encoding="utf-8"?>
<!-- Generator: Adobe Illustrator 21.0.2, SVG Export Plug-In . SVG Version: 6.00 Build 0)  -->
<svg version="1.1" id="Layer_1" xmlns="http://www.w3.org/2000/svg" xmlns:xlink="http://www.w3.org/1999/xlink" x="0px" y="0px"
	 width="254px" height="150px" viewBox="0 0 254 150" style="enable-background:new 0 0 254 150;" xml:space="preserve">
<style type="text/css">
	.st0{fill:#6F7076;}
	.st1{fill:none;stroke:#6F7076;stroke-miterlimit:10;}
	.st2{fill:#FFFFFF;}
</style>
<path class="st0" d="M254,30V4c0-2.2-1.8-4-4-4H4C1.8,0,0,1.8,0,4v26H254z"/>
<g>
	<path class="st0" d="M250,1c1.7,0,3,1.3,3,3v142c0,1.7-1.3,3-3,3H4c-1.7,0-3-1.3-3-3V4c0-1.7,1.3-3,3-3H250 M250,0H4
		C1.8,0,0,1.8,0,4v142c0,2.2,1.8,4,4,4h246c2.2,0,4-1.8,4-4V4C254,1.8,252.2,0,250,0L250,0z"/>
</g>
<path class="st1" d="M254,30"/>
<path class="st1" d="M0,30"/>
<rect x="12" y="13" class="st2" width="20" height="4"/>
<g>
	<rect x="222" y="15" class="st2" width="4" height="2"/>
	<rect x="230" y="15" class="st2" width="4" height="2"/>
	<rect x="238" y="15" class="st2" width="4" height="2"/>
</g>
<g>
	<rect x="126" y="15" class="st2" width="12" height="2"/>
	<rect x="144" y="15" class="st2" width="12" height="2"/>
	<rect x="162" y="15" class="st2" width="12" height="2"/>
	<rect x="180" y="15" class="st2" width="12" height="2"/>
	<rect x="198" y="15" class="st2" width="12" height="2"/>
</g>
</svg>
