<?xml version="1.0" encoding="utf-8"?>
<!-- Generator: Adobe Illustrator 21.0.2, SVG Export Plug-In . SVG Version: 6.00 Build 0)  -->
<svg version="1.1" baseProfile="tiny" id="Layer_1" xmlns="http://www.w3.org/2000/svg" xmlns:xlink="http://www.w3.org/1999/xlink"
	 x="0px" y="0px" width="254px" height="150px" viewBox="0 0 254 150" overflow="scroll" xml:space="preserve">
<path fill="#6F7076" d="M240,32H14c-1.1,0-2-0.9-2-2V14c0-1.1,0.9-2,2-2h226c1.1,0,2,0.9,2,2v16C242,31.1,241.1,32,240,32z"/>
<g>
	<path fill="#6F7076" d="M250,1c1.7,0,3,1.3,3,3v142c0,1.7-1.3,3-3,3H4c-1.7,0-3-1.3-3-3V4c0-1.7,1.3-3,3-3H250 M250,0H4
		C1.8,0,0,1.8,0,4v142c0,2.2,1.8,4,4,4h246c2.2,0,4-1.8,4-4V4C254,1.8,252.2,0,250,0L250,0z"/>
</g>
<rect x="24" y="20" fill="#FFFFFF" width="20" height="4"/>
<g>
	<rect x="210" y="21" fill="#FFFFFF" width="4" height="2"/>
	<rect x="218" y="21" fill="#FFFFFF" width="4" height="2"/>
	<rect x="226" y="21" fill="#FFFFFF" width="4" height="2"/>
</g>
<g>
	<rect x="114" y="21" fill="#FFFFFF" width="12" height="2"/>
	<rect x="132" y="21" fill="#FFFFFF" width="12" height="2"/>
	<rect x="150" y="21" fill="#FFFFFF" width="12" height="2"/>
	<rect x="168" y="21" fill="#FFFFFF" width="12" height="2"/>
	<rect x="186" y="21" fill="#FFFFFF" width="12" height="2"/>
</g>
</svg>
