<?xml version="1.0" encoding="utf-8"?>
<!-- Generator: Adobe Illustrator 21.0.2, SVG Export Plug-In . SVG Version: 6.00 Build 0)  -->
<svg version="1.1" baseProfile="tiny" id="Layer_1" xmlns="http://www.w3.org/2000/svg" xmlns:xlink="http://www.w3.org/1999/xlink"
	 x="0px" y="0px" width="254px" height="150px" viewBox="0 0 254 150" overflow="scroll" xml:space="preserve">
<g>
	<path fill="#6F7076" d="M250,1c1.7,0,3,1.3,3,3v142c0,1.7-1.3,3-3,3H4c-1.7,0-3-1.3-3-3V4c0-1.7,1.3-3,3-3H250 M250,0H4
		C1.8,0,0,1.8,0,4v142c0,2.2,1.8,4,4,4h246c2.2,0,4-1.8,4-4V4C254,1.8,252.2,0,250,0L250,0z"/>
</g>
<g>
	<circle fill="#6F7076" cx="236" cy="132" r="4"/>
	<circle fill="#6F7076" cx="226" cy="132" r="4"/>
	<rect x="235" y="131" fill="#FFFFFF" width="2" height="2"/>
	<rect x="225" y="131" fill="#FFFFFF" width="2" height="2"/>
</g>
<rect x="44" y="62" fill="#6F7076" width="42" height="5"/>
<rect x="44" y="71" fill="#6F7076" width="60" height="5"/>
<path fill="#6F7076" d="M52.3,52h-6.7c-0.9,0-1.7-0.9-1.7-2l0,0c0-1.1,0.8-2,1.7-2h6.7c0.9,0,1.7,0.9,1.7,2l0,0
	C54,51.1,53.3,52,52.3,52z"/>
<polygon fill="#6F7076" points="49,99 47,99 47,97 46,97 46,99 44,99 44,100 46,100 46,102 47,102 47,100 49,100 "/>
<rect x="44" y="80" fill="#6F7076" width="60" height="2"/>
<rect x="44" y="85" fill="#6F7076" width="60" height="2"/>
<g>
	<rect x="230" y="68" fill="#6F7076" width="10" height="2"/>
	<rect x="235" y="72" fill="#6F7076" width="5" height="2"/>
	<rect x="235" y="76" fill="#6F7076" width="5" height="2"/>
	<rect x="235" y="80" fill="#6F7076" width="5" height="2"/>
</g>
<rect x="76" fill="#6F7076" width="1" height="150"/>
</svg>
