<?xml version="1.0" encoding="utf-8"?>
<!-- Generator: Adobe Illustrator 21.0.2, SVG Export Plug-In . SVG Version: 6.00 Build 0)  -->
<svg version="1.1" baseProfile="tiny" id="Layer_1" xmlns="http://www.w3.org/2000/svg" xmlns:xlink="http://www.w3.org/1999/xlink"
	 x="0px" y="0px" width="254px" height="150px" viewBox="0 0 254 150" overflow="scroll" xml:space="preserve">
<circle fill="#FFFFFF" cx="127" cy="75" r="45"/>
<path fill="none" stroke="#6F7076" stroke-miterlimit="10" d="M254,30"/>
<path fill="none" stroke="#6F7076" stroke-miterlimit="10" d="M0,30"/>
<g>
	<path fill="#6F7076" d="M142.7,82.4c-0.7,1.6-1.8,3-2.9,4.3c-1.8-1.1-4.1-1.9-6.7-2.4c0.5-2.6,0.8-5.5,0.8-8.4h7.9
		c0.4,1.4,1.7,2.6,3.3,2.6c1.9,0,3.5-1.6,3.5-3.5c0-1.9-1.6-3.5-3.5-3.5c-1.6,0-3,1.1-3.3,2.6h-7.9c0-2.9-0.4-5.7-0.8-8.4
		c2.5-0.5,4.8-1.3,6.7-2.4c1.2,1.2,2.2,2.6,2.9,4.3l1.6-0.7c-3.1-6.6-9.9-10.8-17.2-10.8c-7.3,0-14.1,4.2-17.2,10.8l1.6,0.7
		c0.7-1.6,1.8-3,2.9-4.3c1.8,1.1,4.1,1.9,6.7,2.4c-0.5,2.6-0.8,5.5-0.8,8.4h-7.9c-0.4-1.4-1.7-2.6-3.3-2.6c-1.9,0-3.5,1.6-3.5,3.5
		c0,1.9,1.6,3.5,3.5,3.5c1.6,0,3-1.1,3.3-2.6h7.9c0,2.9,0.4,5.7,0.8,8.4c-2.5,0.5-4.8,1.3-6.7,2.4c-1.2-1.2-2.2-2.6-2.9-4.3
		l-1.6,0.7c3.1,6.6,9.9,10.8,17.2,10.8c7.3,0,14.1-4.2,17.2-10.8L142.7,82.4z M145.2,73.3c1,0,1.7,0.7,1.7,1.7s-0.7,1.7-1.7,1.7
		s-1.7-0.7-1.7-1.7S144.2,73.3,145.2,73.3z M108.8,76.7c-1,0-1.7-0.7-1.7-1.7s0.7-1.7,1.7-1.7s1.7,0.7,1.7,1.7
		S109.8,76.7,108.8,76.7z M138.5,87.9c-2.3,2-5.1,3.5-8.3,3.9c1.1-1.4,1.9-3.6,2.5-6C134.9,86.4,136.8,87,138.5,87.9z M123.1,85.6
		c1.3-0.1,2.6-0.2,3.9-0.2s2.8,0.1,3.9,0.2c-1.1,4.1-2.5,6.6-3.9,6.6C125.6,92.2,124,89.7,123.1,85.6z M127,57.8
		c1.4,0,3,2.5,3.9,6.6c-1.3,0.1-2.6,0.2-3.9,0.2s-2.8-0.1-3.9-0.2C124,60.3,125.6,57.8,127,57.8z M130.2,58.1c3.1,0.6,5.9,2,8.3,3.9
		c-1.7,0.8-3.6,1.6-5.7,2C132.1,61.7,131.3,59.6,130.2,58.1z M115.5,62.1c2.3-2,5.1-3.5,8.3-3.9c-1.1,1.4-1.9,3.6-2.5,6
		C119.1,63.6,117.2,63,115.5,62.1z M122.6,66.2c1.4,0.2,2.9,0.4,4.4,0.4c1.6,0,3-0.1,4.4-0.4c0.5,2.4,0.7,5,0.8,8h-10.4
		C121.9,71.2,122.2,68.4,122.6,66.2z M121.9,75.8h10.4c0,3-0.4,5.7-0.8,8c-1.4-0.2-2.9-0.4-4.4-0.4c-1.6,0-3,0.1-4.4,0.4
		C122.2,81.6,121.9,78.8,121.9,75.8z M123.8,91.9c-3.1-0.6-5.9-2-8.3-4.1c1.7-0.8,3.6-1.6,5.7-2C121.9,88.3,122.7,90.4,123.8,91.9z"
		/>
	<path fill="#6F7076" d="M130.3,50.1c-0.4-1.4-1.7-2.6-3.3-2.6c-1.9,0-3.5,1.6-3.5,3.5s1.6,3.5,3.5,3.5c1.6,0,2.9-1.1,3.3-2.5
		c11.5,1.6,20.1,11.4,20.1,23.1c0,7.5-3.7,14.7-10,19l1,1.4c6.7-4.7,10.8-12.3,10.8-20.4C152.1,62.3,142.8,51.8,130.3,50.1z
		 M127,52.6c-1,0-1.7-0.7-1.7-1.7c0-1,0.7-1.7,1.7-1.7s1.7,0.7,1.7,1.7C128.7,51.9,128,52.6,127,52.6z"/>
	<path fill="#6F7076" d="M127,95.7c-1.6,0-2.9,1.1-3.3,2.5c-11.5-1.7-20.1-11.5-20.1-23.2c0-7.5,3.7-14.7,10-19l-1-1.4
		c-6.7,4.7-10.8,12.3-10.8,20.4c0,12.7,9.3,23.2,21.8,24.9c0.4,1.4,1.7,2.6,3.3,2.6c1.9,0,3.5-1.6,3.5-3.5
		C130.5,97.1,128.9,95.7,127,95.7z M127,100.8c-1,0-1.7-0.7-1.7-1.7c0-1,0.7-1.7,1.7-1.7s1.7,0.7,1.7,1.7
		C128.7,100,128,100.8,127,100.8z"/>
</g>
</svg>
