<?xml version="1.0" encoding="utf-8"?>
<!-- Generator: Adobe Illustrator 19.2.0, SVG Export Plug-In . SVG Version: 6.00 Build 0)  -->
<svg version="1.1" id="Layer_1" xmlns="http://www.w3.org/2000/svg" xmlns:xlink="http://www.w3.org/1999/xlink" x="0px" y="0px"
	 width="254px" height="150px" viewBox="0 0 254 150" style="enable-background:new 0 0 254 150;" xml:space="preserve">
<style type="text/css">
	.st0{fill:#6F7076;}
</style>
<g id="Layer_2">
</g>
<g>
	<path class="st0" d="M4,1h246c1.7,0,3,1.3,3,3v142c0,1.7-1.3,3-3,3H4c-1.7,0-3-1.3-3-3V4C1,2.3,2.3,1,4,1 M4,0C1.8,0,0,1.8,0,4
		l0,142c0,2.2,1.8,4,4,4h246c2.2,0,4-1.8,4-4V4c0-2.2-1.8-4-4-4L4,0L4,0z"/>
</g>
<g>
	<g>
		<rect x="159" y="94" class="st0" width="10" height="2"/>
		<rect x="159" y="98.5" class="st0" width="10" height="1"/>
	</g>
	<g>
		<rect x="175" y="94" class="st0" width="10" height="2"/>
		<rect x="175" y="98.5" class="st0" width="10" height="1"/>
	</g>
	<g>
		<rect x="192" y="94" class="st0" width="10" height="2"/>
		<rect x="192" y="98.5" class="st0" width="10" height="1"/>
	</g>
	<g>
		<rect x="209" y="94" class="st0" width="10" height="2"/>
		<rect x="209" y="98.5" class="st0" width="10" height="1"/>
	</g>
	<rect x="159" y="54" class="st0" width="26" height="5"/>
	<rect x="159" y="63" class="st0" width="60" height="5"/>
	<rect x="159" y="72" class="st0" width="60" height="2"/>
	<rect x="159" y="77" class="st0" width="60" height="2"/>
	<rect x="159" y="82" class="st0" width="60" height="2"/>
	<path class="st0" d="M182,114h-20c-1.6,0-3-1.3-3-3l0,0c0-1.7,1.3-3,3-3h20c1.7,0,3,1.3,3,3l0,0C185,112.7,183.7,114,182,114z"/>
	<path class="st0" d="M167,44h-6c-1.1,0-2-0.9-2-2l0,0c0-1.1,0.9-2,2-2h6c1.1,0,2,0.9,2,2l0,0C169,43.1,168.1,44,167,44z"/>
</g>
<g id="Layer_3">
</g>
<rect x="123.5" y="0" class="st0" width="1" height="150"/>
<rect x="0" y="74.5" class="st0" width="124" height="1"/>
</svg>
