<?xml version="1.0" encoding="utf-8"?>
<!-- Generator: Adobe Illustrator 21.0.2, SVG Export Plug-In . SVG Version: 6.00 Build 0)  -->
<svg version="1.1" baseProfile="tiny" id="Layer_1" xmlns="http://www.w3.org/2000/svg" xmlns:xlink="http://www.w3.org/1999/xlink"
	 x="0px" y="0px" width="254px" height="150px" viewBox="0 0 254 150" overflow="scroll" xml:space="preserve">
<g>
	<path fill="#6F7076" d="M250,1c1.7,0,3,1.3,3,3v142c0,1.7-1.3,3-3,3H4c-1.7,0-3-1.3-3-3V4c0-1.7,1.3-3,3-3H250 M250,0H4
		C1.8,0,0,1.8,0,4v142c0,2.2,1.8,4,4,4h246c2.2,0,4-1.8,4-4V4C254,1.8,252.2,0,250,0L250,0z"/>
</g>
<path fill="none" stroke="#6F7076" stroke-miterlimit="10" d="M254,30"/>
<path fill="none" stroke="#6F7076" stroke-miterlimit="10" d="M0,30"/>
<path fill="#6F7076" d="M83,15v120H15V15H83 M84,14H14v122h70V14L84,14z"/>
<path fill="#6F7076" d="M239,15v120H84V15H239 M240,14H83v122h157V14L240,14z"/>
<g>
	<rect x="80.1" y="60.6" fill="#555555" width="13.7" height="1.7"/>
	<rect x="80.1" y="84.7" fill="#555555" width="8.6" height="1.7"/>
	<rect x="80.1" y="67.5" fill="#555555" width="25.7" height="2.6"/>
	<rect x="80.1" y="72.6" fill="#555555" width="34.3" height="2.6"/>
</g>
<g>
	<path fill="#555555" d="M226,64.9v3.4h3.4v-3.4H226z M228.6,67.5h-1.7v-1.7h1.7V67.5z"/>
	<path fill="#555555" d="M226,75.2h3.4v-3.4H226V75.2z M226.8,72.6h1.7v1.7h-1.7V72.6z"/>
	<path fill="#555555" d="M226,82.1h3.4v-3.4H226V82.1z M226.8,79.5h1.7v1.7h-1.7V79.5z"/>
</g>
</svg>
