<?xml version="1.0" encoding="utf-8"?>
<!-- Generator: Adobe Illustrator 21.0.2, SVG Export Plug-In . SVG Version: 6.00 Build 0)  -->
<svg version="1.1" baseProfile="tiny" id="Layer_1" xmlns="http://www.w3.org/2000/svg" xmlns:xlink="http://www.w3.org/1999/xlink"
	 x="0px" y="0px" width="254px" height="150px" viewBox="0 0 254 150" overflow="scroll" xml:space="preserve">
<g>
	<path fill="#6F7076" d="M250,1c1.7,0,3,1.3,3,3v142c0,1.7-1.3,3-3,3H4c-1.7,0-3-1.3-3-3V4c0-1.7,1.3-3,3-3H250 M250,0H4
		C1.8,0,0,1.8,0,4v142c0,2.2,1.8,4,4,4h246c2.2,0,4-1.8,4-4V4C254,1.8,252.2,0,250,0L250,0z"/>
</g>
<g>
	<g>
		<path fill="#6F7076" d="M241,13v40h-64V13H241 M242,12h-66v42h66V12L242,12z"/>
		<rect x="194" y="59" fill="#6F7076" width="30" height="5"/>
		<rect x="202" y="68" fill="#6F7076" width="14" height="2"/>
	</g>
	<g>
		<path fill="#6F7076" d="M241,81v40h-64V81H241 M242,80h-66v42h66V80L242,80z"/>
		<rect x="194" y="127" fill="#6F7076" width="30" height="5"/>
		<rect x="202" y="136" fill="#6F7076" width="14" height="2"/>
	</g>
</g>
<g>
	<g>
		<path fill="#6F7076" d="M77,13v40H13V13H77 M78,12H12v42h66V12L78,12z"/>
		<rect x="30" y="59" fill="#6F7076" width="30" height="5"/>
		<rect x="38" y="68" fill="#6F7076" width="14" height="2"/>
	</g>
	<g>
		<path fill="#6F7076" d="M77,81v40H13V81H77 M78,80H12v42h66V80L78,80z"/>
		<rect x="30" y="127" fill="#6F7076" width="30" height="5"/>
		<rect x="38" y="136" fill="#6F7076" width="14" height="2"/>
	</g>
</g>
<g>
	<g>
		<path fill="#6F7076" d="M159,13v40H95V13H159 M160,12H94v42h66V12L160,12z"/>
		<rect x="112" y="59" fill="#6F7076" width="30" height="5"/>
		<rect x="120" y="68" fill="#6F7076" width="14" height="2"/>
	</g>
	<g>
		<path fill="#6F7076" d="M159,81v40H95V81H159 M160,80H94v42h66V80L160,80z"/>
		<rect x="112" y="127" fill="#6F7076" width="30" height="5"/>
		<rect x="120" y="136" fill="#6F7076" width="14" height="2"/>
	</g>
</g>
</svg>
