<?xml version="1.0" encoding="utf-8"?>
<!-- Generator: Adobe Illustrator 19.2.0, SVG Export Plug-In . SVG Version: 6.00 Build 0)  -->
<svg version="1.1" id="Layer_1" xmlns="http://www.w3.org/2000/svg" xmlns:xlink="http://www.w3.org/1999/xlink" x="0px" y="0px"
	 width="254px" height="150px" viewBox="0 0 254 150" style="enable-background:new 0 0 254 150;" xml:space="preserve">
<style type="text/css">
	.st0{fill:#6F7076;}
</style>
<g>
	<path class="st0" d="M250,1c1.7,0,3,1.3,3,3v142c0,1.7-1.3,3-3,3H4c-1.7,0-3-1.3-3-3V4c0-1.7,1.3-3,3-3H250 M250,0H4
		C1.8,0,0,1.8,0,4v142c0,2.2,1.8,4,4,4h246c2.2,0,4-1.8,4-4V4C254,1.8,252.2,0,250,0L250,0z"/>
</g>
<g>
	<rect x="97" y="86" class="st0" width="10" height="2"/>
	<rect x="97" y="90.5" class="st0" width="10" height="1"/>
	<rect x="113" y="86" class="st0" width="10" height="2"/>
	<rect x="113" y="90.5" class="st0" width="10" height="1"/>
	<rect x="130" y="86" class="st0" width="10" height="2"/>
	<rect x="130" y="90.5" class="st0" width="10" height="1"/>
	<rect x="147" y="86" class="st0" width="10" height="2"/>
	<rect x="147" y="90.5" class="st0" width="10" height="1"/>
</g>
<rect x="97" y="63" class="st0" width="26" height="5"/>
<rect x="97" y="72" class="st0" width="60" height="5"/>
<path class="st0" d="M120,106h-20c-1.6,0-3-1.3-3-3l0,0c0-1.7,1.4-3,3-3h20c1.6,0,3,1.3,3,3l0,0C123,104.7,121.6,106,120,106z"/>
<path class="st0" d="M105,53h-6c-1.1,0-2-0.9-2-2l0,0c0-1.1,0.9-2,2-2h6c1.1,0,2,0.9,2,2l0,0C107,52.1,106.1,53,105,53z"/>
</svg>
