<?xml version="1.0" encoding="utf-8"?>
<!-- Generator: Adobe Illustrator 21.0.2, SVG Export Plug-In . SVG Version: 6.00 Build 0)  -->
<svg version="1.1" baseProfile="tiny" id="Layer_1" xmlns="http://www.w3.org/2000/svg" xmlns:xlink="http://www.w3.org/1999/xlink"
	 x="0px" y="0px" width="254px" height="150px" viewBox="0 0 254 150" overflow="scroll" xml:space="preserve">
<g>
	<path fill="#6F7076" d="M250,1c1.7,0,3,1.3,3,3v142c0,1.7-1.3,3-3,3H4c-1.7,0-3-1.3-3-3V4c0-1.7,1.3-3,3-3H250 M250,0H4
		C1.8,0,0,1.8,0,4v142c0,2.2,1.8,4,4,4h246c2.2,0,4-1.8,4-4V4C254,1.8,252.2,0,250,0L250,0z"/>
</g>
<path fill="none" stroke="#6F7076" stroke-miterlimit="10" d="M254,30"/>
<path fill="none" stroke="#6F7076" stroke-miterlimit="10" d="M0,30"/>
<g>
	<rect x="118" y="12" fill="#FFFFFF" width="84" height="35"/>
	<rect x="126" y="20" fill="#6F7076" width="34.6" height="2"/>
	<rect x="126" y="25" fill="#6F7076" width="68" height="1"/>
	<rect x="126" y="29" fill="#6F7076" width="68" height="1"/>
	<rect x="126" y="33" fill="#6F7076" width="34.6" height="1"/>
	<rect x="52" y="12" fill="#E2E2E4" width="66" height="35"/>
	<rect x="52" y="12" fill="#FFFFFF" width="10" height="35"/>
	<rect x="56" y="16" fill="#6F7076" width="2" height="18"/>
</g>
<g>
	<rect x="118" y="57" fill="#FFFFFF" width="84" height="35"/>
	<rect x="126" y="65" fill="#6F7076" width="34.6" height="2"/>
	<rect x="126" y="70" fill="#6F7076" width="68" height="1"/>
	<rect x="126" y="74" fill="#6F7076" width="68" height="1"/>
	<rect x="126" y="78" fill="#6F7076" width="34.6" height="1"/>
	<rect x="52" y="57" fill="#E2E2E4" width="66" height="35"/>
	<rect x="52" y="57" fill="#FFFFFF" width="10" height="35"/>
	<rect x="56" y="61" fill="#6F7076" width="2" height="18"/>
</g>
<g>
	<rect x="118" y="102" fill="#FFFFFF" width="84" height="35"/>
	<rect x="126" y="110" fill="#6F7076" width="34.6" height="2"/>
	<rect x="126" y="115" fill="#6F7076" width="68" height="1"/>
	<rect x="126" y="119" fill="#6F7076" width="68" height="1"/>
	<rect x="126" y="123" fill="#6F7076" width="34.6" height="1"/>
	<rect x="52" y="102" fill="#E2E2E4" width="66" height="35"/>
	<rect x="52" y="102" fill="#FFFFFF" width="10" height="35"/>
	<rect x="56" y="106" fill="#6F7076" width="2" height="18"/>
</g>
</svg>
