<?xml version="1.0" encoding="utf-8"?>
<!-- Generator: Adobe Illustrator 21.0.2, SVG Export Plug-In . SVG Version: 6.00 Build 0)  -->
<svg version="1.1" baseProfile="tiny" id="Layer_1" xmlns="http://www.w3.org/2000/svg" xmlns:xlink="http://www.w3.org/1999/xlink"
	 x="0px" y="0px" width="254px" height="150px" viewBox="0 0 254 150" overflow="scroll" xml:space="preserve">
<g>
	<path fill="#6F7076" d="M250,1c1.7,0,3,1.3,3,3v142c0,1.7-1.3,3-3,3H4c-1.7,0-3-1.3-3-3V4c0-1.7,1.3-3,3-3H250 M250,0H4
		C1.8,0,0,1.8,0,4v142c0,2.2,1.8,4,4,4h246c2.2,0,4-1.8,4-4V4C254,1.8,252.2,0,250,0L250,0z"/>
</g>
<g>
	<path fill="#6F7076" d="M240,13v54h-64V13H240 M241,12h-66v56h66V12L241,12z"/>
	<path fill="#6F7076" d="M240,83v54h-64V83H240 M241,82h-66v56h66V82L241,82z"/>
</g>
<g>
	<path fill="#6F7076" d="M77,13v54H13V13H77 M78,12H12v56h66V12L78,12z"/>
	<path fill="#6F7076" d="M77,83v54H13V83H77 M78,82H12v56h66V82L78,82z"/>
</g>
<g>
	<path fill="#6F7076" d="M159,13v54H95V13H159 M160,12H94v56h66V12L160,12z"/>
	<path fill="#6F7076" d="M159,83v54H95V83H159 M160,82H94v56h66V82L160,82z"/>
</g>
</svg>
