<?xml version="1.0" encoding="utf-8"?>
<!-- Generator: Adobe Illustrator 19.2.0, SVG Export Plug-In . SVG Version: 6.00 Build 0)  -->
<svg version="1.1" id="Layer_1" xmlns="http://www.w3.org/2000/svg" xmlns:xlink="http://www.w3.org/1999/xlink" x="0px" y="0px"
	 width="254px" height="150px" viewBox="0 0 254 150" style="enable-background:new 0 0 254 150;" xml:space="preserve">
<style type="text/css">
	.st0{fill:#6F7076;}
	.st1{fill:none;stroke:#6F7076;stroke-miterlimit:10;}
</style>
<g>
	<path class="st0" d="M250,1c1.7,0,3,1.3,3,3v142c0,1.7-1.3,3-3,3H4c-1.7,0-3-1.3-3-3V4c0-1.7,1.3-3,3-3H250 M250,0H4
		C1.8,0,0,1.8,0,4v142c0,2.2,1.8,4,4,4h246c2.2,0,4-1.8,4-4V4C254,1.8,252.2,0,250,0L250,0z"/>
</g>
<g>
	<g>
		<rect x="97" y="63.5" class="st0" width="10" height="2"/>
		<rect x="97" y="68" class="st0" width="10" height="1"/>
		<rect x="113" y="63.5" class="st0" width="10" height="2"/>
		<rect x="113" y="68" class="st0" width="10" height="1"/>
		<rect x="130" y="63.5" class="st0" width="10" height="2"/>
		<rect x="130" y="68" class="st0" width="10" height="1"/>
		<rect x="147" y="63.5" class="st0" width="10" height="2"/>
		<rect x="147" y="68" class="st0" width="10" height="1"/>
	</g>
	<rect x="114" y="40.5" class="st0" width="26" height="5"/>
	<rect x="97" y="49.5" class="st0" width="60" height="5"/>
	<path class="st0" d="M137,83.5h-20c-1.6,0-3-1.3-3-3l0,0c0-1.7,1.4-3,3-3h20c1.6,0,3,1.3,3,3l0,0C140,82.2,138.6,83.5,137,83.5z"/>
	<path class="st0" d="M130,30.5h-6c-1.1,0-2-0.9-2-2l0,0c0-1.1,0.9-2,2-2h6c1.1,0,2,0.9,2,2l0,0C132,29.6,131.1,30.5,130,30.5z"/>
</g>
<g>
	<path class="st0" d="M250,1c1.7,0,3,1.3,3,3v142c0,1.7-1.3,3-3,3H4c-1.7,0-3-1.3-3-3V4c0-1.7,1.3-3,3-3H250 M250,0H4
		C1.8,0,0,1.8,0,4v142c0,2.2,1.8,4,4,4h246c2.2,0,4-1.8,4-4V4C254,1.8,252.2,0,250,0L250,0z"/>
</g>
<path class="st1" d="M254,30"/>
<path class="st1" d="M0,30"/>
<g>
	<path class="st0" d="M250,1c1.7,0,3,1.3,3,3v142c0,1.7-1.3,3-3,3H4c-1.7,0-3-1.3-3-3V4c0-1.7,1.3-3,3-3H250 M250,0H4
		C1.8,0,0,1.8,0,4v142c0,2.2,1.8,4,4,4h246c2.2,0,4-1.8,4-4V4C254,1.8,252.2,0,250,0L250,0z"/>
</g>
<path class="st1" d="M254,30"/>
<path class="st1" d="M0,30"/>
<g>
	<g>
		<path class="st0" d="M123,105v44H51v-44H123 M124,104H50v46h74V104L124,104z"/>
	</g>
</g>
<g>
	<g>
		<path class="st0" d="M203,105v44h-72v-44H203 M204,104h-74v46h74V104L204,104z"/>
	</g>
</g>
</svg>
