<?xml version="1.0" encoding="utf-8"?>
<!-- Generator: Adobe Illustrator 21.0.2, SVG Export Plug-In . SVG Version: 6.00 Build 0)  -->
<svg version="1.1" baseProfile="tiny" id="Layer_1" xmlns="http://www.w3.org/2000/svg" xmlns:xlink="http://www.w3.org/1999/xlink"
	 x="0px" y="0px" width="254px" height="150px" viewBox="0 0 254 150" overflow="scroll" xml:space="preserve">
<g>
	<path fill="#6F7076" d="M250,1c1.7,0,3,1.3,3,3v142c0,1.7-1.3,3-3,3H4c-1.7,0-3-1.3-3-3V4c0-1.7,1.3-3,3-3H250 M250,0H4
		C1.8,0,0,1.8,0,4v142c0,2.2,1.8,4,4,4h246c2.2,0,4-1.8,4-4V4C254,1.8,252.2,0,250,0L250,0z"/>
</g>
<g>
	<circle fill="#6F7076" cx="132" cy="134" r="4"/>
	<circle fill="#6F7076" cx="122" cy="134" r="4"/>
	<rect x="131" y="133" fill="#FFFFFF" width="2" height="2"/>
	<rect x="121" y="133" fill="#FFFFFF" width="2" height="2"/>
</g>
<g>
	<path fill="#6F7076" d="M79,26v74H15V26H79 M80,25H14v76h66V25L80,25z"/>
	<rect x="32" y="106" fill="#6F7076" width="30" height="5"/>
	<rect x="40" y="115" fill="#6F7076" width="14" height="2"/>
</g>
<g>
	<path fill="#6F7076" d="M239,26v74h-64V26H239 M240,25h-66v76h66V25L240,25z"/>
	<rect x="192" y="106" fill="#6F7076" width="30" height="5"/>
	<rect x="200" y="115" fill="#6F7076" width="14" height="2"/>
</g>
<g>
	<path fill="#6F7076" d="M159,26v74H95V26H159 M160,25H94v76h66V25L160,25z"/>
	<rect x="112" y="106" fill="#6F7076" width="30" height="5"/>
	<rect x="120" y="115" fill="#6F7076" width="14" height="2"/>
</g>
</svg>
