<?xml version="1.0" encoding="utf-8"?>
<!-- Generator: Adobe Illustrator 21.0.2, SVG Export Plug-In . SVG Version: 6.00 Build 0)  -->
<svg version="1.1" baseProfile="tiny" id="Layer_1" xmlns="http://www.w3.org/2000/svg" xmlns:xlink="http://www.w3.org/1999/xlink"
	 x="0px" y="0px" width="254px" height="150px" viewBox="0 0 254 150" overflow="scroll" xml:space="preserve">
<g>
	<path fill="#6F7076" d="M250,1c1.7,0,3,1.3,3,3v142c0,1.7-1.3,3-3,3H4c-1.7,0-3-1.3-3-3V4c0-1.7,1.3-3,3-3H250 M250,0H4
		C1.8,0,0,1.8,0,4v142c0,2.2,1.8,4,4,4h246c2.2,0,4-1.8,4-4V4C254,1.8,252.2,0,250,0L250,0z"/>
</g>
<path fill="none" stroke="#6F7076" stroke-miterlimit="10" d="M254,30"/>
<path fill="none" stroke="#6F7076" stroke-miterlimit="10" d="M0,30"/>
<path fill="#6F7076" d="M201,13v33H53V13H201 M202,12H52v35h150V12L202,12z"/>
<path fill="#6F7076" d="M201,103v33H53v-33H201 M202,102H52v35h150V102L202,102z"/>
<rect x="60" y="110" fill="#6F7076" width="30" height="2"/>
<rect x="60" y="115" fill="#6F7076" width="134" height="1"/>
<rect x="60" y="119" fill="#6F7076" width="134" height="1"/>
<rect x="60" y="123" fill="#6F7076" width="67" height="1"/>
<rect x="61" y="126" fill="#6F7076" width="1" height="3"/>
<rect x="60.1" y="127" fill="#6F7076" width="2.9" height="1"/>
<path fill="#6F7076" d="M201,58v33H53V58H201 M202,57H52v35h150V57L202,57z"/>
<rect x="60" y="65" fill="#6F7076" width="30" height="2"/>
<rect x="60" y="70" fill="#6F7076" width="134" height="1"/>
<rect x="60" y="74" fill="#6F7076" width="134" height="1"/>
<rect x="60" y="78" fill="#6F7076" width="67" height="1"/>
<rect x="61" y="81" fill="#6F7076" width="1" height="3"/>
<rect x="60.1" y="82" fill="#6F7076" width="2.9" height="1"/>
<rect x="60.1" y="20" fill="#6F7076" width="30" height="4"/>
<rect x="60.1" y="29" fill="#6F7076" width="133.9" height="2"/>
<rect x="60.1" y="34" fill="#6F7076" width="133.9" height="2"/>
</svg>
